<?xml version="1.0" standalone="no"?>
<!DOCTYPE svg PUBLIC "-//W3C//DTD SVG 20010904//EN"
 "http://www.w3.org/TR/2001/REC-SVG-20010904/DTD/svg10.dtd">
<svg version="1.0" xmlns="http://www.w3.org/2000/svg"
 width="512.000000pt" height="512.000000pt" viewBox="0 0 512.000000 512.000000"
 preserveAspectRatio="xMidYMid meet">

<g transform="translate(0.000000,512.000000) scale(0.100000,-0.100000)"
fill="#000000" stroke="none">
<path d="M4115 4766 c-230 -53 -419 -185 -500 -350 -171 -345 98 -746 499
-746 260 0 472 164 531 411 34 146 11 295 -71 465 -59 122 -107 176 -182 204
-72 27 -197 34 -277 16z m300 -203 c61 -32 102 -81 108 -128 2 -22 16 -67 30
-100 51 -115 25 -209 -85 -319 -77 -76 -163 -121 -277 -143 -166 -33 -317 14
-442 137 -106 104 -130 171 -89 255 61 125 243 257 424 306 100 27 273 23 331
-8z"/>
<path d="M1795 4713 c-9 -23 -24 -639 -25 -1010 l0 -282 -42 -5 c-24 -3 -137
-8 -253 -11 -746 -21 -1028 -34 -1036 -47 -14 -21 -10 -92 5 -114 14 -18 32
-19 665 -18 l651 0 0 -622 c0 -342 2 -629 5 -636 5 -12 -75 -16 -517 -27 -288
-7 -546 -16 -573 -22 -28 -5 -65 -18 -83 -29 -32 -20 -33 -22 -30 -78 l3 -57
40 1 c22 1 292 5 601 9 l561 6 7 -208 c17 -530 52 -1063 72 -1111 10 -26 19
-33 36 -30 40 5 50 61 38 202 -14 170 -38 580 -45 776 -3 91 -8 212 -11 269
l-6 104 698 -6 c383 -4 700 -9 703 -13 3 -3 7 -291 9 -640 4 -582 6 -637 22
-656 21 -27 46 -19 61 19 13 33 15 765 4 1081 l-8 202 289 0 c492 1 1120 30
1137 54 9 12 5 161 -4 170 -3 3 -54 1 -115 -4 -204 -17 -578 -30 -944 -33
l-365 -2 -7 170 c-4 94 -8 393 -10 665 l-3 495 715 0 715 0 3 75 c5 127 85
114 -727 114 l-701 1 0 270 c0 149 -5 353 -11 455 -8 139 -8 224 1 341 9 118
10 161 1 177 -16 31 -28 27 -40 -10 -31 -94 -36 -197 -33 -623 2 -236 0 -471
-3 -521 l-7 -92 -236 -6 c-131 -4 -430 -14 -667 -22 -236 -7 -442 -14 -457
-14 l-28 0 -1 628 c-1 345 -4 638 -8 652 -8 30 -36 38 -46 13z m1448 -2105 c3
-365 5 -663 4 -663 -1 0 -313 1 -693 3 l-691 4 -6 111 c-6 104 -10 1165 -4
1168 6 4 1060 36 1213 37 l171 2 6 -662z"/>
<path d="M2830 3054 c-173 -133 -285 -222 -359 -286 -24 -21 -49 -38 -56 -38
-7 0 -53 42 -103 94 -91 94 -170 202 -206 284 -21 46 -39 53 -57 21 -35 -65
57 -257 207 -434 l56 -66 -104 -107 c-99 -102 -181 -202 -206 -249 -17 -31
-15 -85 4 -111 16 -23 16 -23 131 98 64 66 153 154 200 196 l84 75 62 -54 c71
-61 193 -154 285 -216 120 -81 306 -191 323 -191 41 0 52 138 14 181 -11 11
-72 51 -138 90 -110 66 -352 225 -406 267 l-24 19 139 105 c76 57 187 139 247
182 59 43 112 86 117 96 13 25 13 126 0 151 -6 10 -18 19 -28 19 -9 0 -91 -57
-182 -126z"/>
<path d="M2060 4684 c-18 -46 -11 -80 29 -140 38 -57 192 -214 299 -304 l52
-45 -177 -185 c-226 -235 -233 -244 -233 -285 0 -45 16 -85 35 -85 8 0 120
104 250 230 129 127 236 230 238 230 2 0 84 -88 181 -195 172 -189 269 -285
287 -285 18 0 39 61 39 111 l0 51 -159 162 c-87 88 -177 182 -199 207 l-41 45
47 46 c55 53 243 211 277 234 47 31 56 145 16 196 -17 20 -18 20 -112 -58 -52
-43 -151 -131 -220 -195 l-125 -117 -161 129 c-88 70 -191 162 -228 204 -37
41 -72 75 -76 75 -5 0 -14 -12 -19 -26z"/>
<path d="M1075 4677 c-228 -59 -439 -265 -490 -478 -77 -328 130 -604 450
-602 235 2 399 143 484 418 52 167 47 299 -19 447 -74 169 -139 219 -290 224
-47 2 -107 -2 -135 -9z m260 -177 c26 -13 31 -22 36 -70 6 -59 16 -90 29 -90
4 0 22 -13 39 -29 26 -24 31 -37 31 -73 0 -88 -64 -243 -135 -325 -109 -126
-331 -169 -491 -94 -174 82 -235 216 -162 362 39 80 158 201 247 253 108 63
192 87 291 84 49 -2 98 -10 115 -18z"/>
<path d="M1389 3017 c-80 -67 -185 -157 -233 -200 l-86 -79 -50 42 c-27 23
-112 107 -188 186 -77 79 -144 144 -150 144 -21 0 -32 -69 -18 -110 17 -51 92
-145 200 -254 l91 -91 -126 -125 c-101 -100 -133 -138 -158 -190 -37 -77 -47
-144 -29 -180 20 -38 40 -30 66 25 29 59 158 191 285 289 77 60 90 66 105 55
36 -28 141 -117 247 -209 61 -53 131 -113 158 -134 46 -37 48 -38 67 -21 26
23 35 78 22 124 -12 40 -67 88 -280 251 -61 47 -112 90 -112 96 0 6 9 18 19
25 116 84 364 296 372 317 20 50 -8 162 -40 162 -9 -1 -82 -56 -162 -123z"/>
<path d="M3879 3101 c-91 -29 -169 -79 -249 -161 -82 -83 -129 -155 -168 -258
-23 -59 -26 -82 -26 -197 -1 -113 2 -137 22 -188 32 -79 103 -149 194 -192
207 -98 438 -57 604 109 81 81 125 159 155 274 46 179 3 382 -108 512 -50 58
-84 78 -165 100 -90 24 -186 24 -259 1z m247 -162 c34 -12 164 -140 192 -189
39 -65 38 -153 -1 -233 -34 -69 -119 -163 -186 -206 -175 -112 -414 -99 -556
31 -86 78 -96 151 -36 270 84 166 264 312 418 338 50 8 132 3 169 -11z"/>
<path d="M4349 1573 c-50 -48 -140 -145 -201 -215 -62 -71 -116 -124 -122
-121 -53 31 -329 257 -391 322 -22 22 -45 41 -52 41 -20 0 -32 -63 -22 -112
14 -64 80 -142 224 -265 69 -58 125 -108 125 -111 0 -2 -35 -42 -78 -87 -107
-113 -168 -195 -214 -291 -45 -94 -55 -142 -38 -184 21 -50 45 -39 84 39 45
89 127 189 265 326 l111 109 97 -100 c54 -55 148 -153 208 -217 76 -79 125
-123 158 -139 l49 -23 19 24 c21 26 26 105 8 143 -6 13 -42 46 -80 73 -41 29
-128 114 -209 201 l-138 151 102 114 c56 63 132 138 169 168 72 59 80 73 79
139 0 58 -19 102 -44 102 -10 0 -59 -39 -109 -87z"/>
<path d="M1525 1591 c-72 -60 -203 -193 -290 -294 l-50 -57 -60 51 c-33 28
-113 101 -178 161 -130 122 -142 125 -142 39 0 -41 6 -56 42 -102 23 -30 89
-100 146 -157 l105 -103 -81 -97 c-44 -53 -129 -144 -187 -202 -59 -58 -112
-115 -119 -127 -14 -27 -14 -78 -1 -104 22 -41 62 -22 186 88 60 53 252 265
298 329 13 17 21 12 122 -81 59 -55 138 -137 177 -182 85 -101 117 -107 133
-25 16 80 -30 146 -218 318 -54 49 -98 94 -98 100 0 10 198 207 283 280 47 40
47 41 47 103 0 57 -20 121 -38 121 -4 0 -38 -27 -77 -59z"/>
<path d="M2545 1614 c-33 -8 -103 -35 -155 -61 -201 -97 -300 -253 -288 -451
18 -282 274 -517 514 -473 169 31 308 140 389 305 46 92 58 161 53 280 -5 97
-6 100 -64 213 -66 128 -101 165 -178 188 -62 19 -192 18 -271 -1z m288 -173
c19 -7 25 -19 30 -51 4 -30 16 -54 40 -79 55 -58 67 -82 67 -132 0 -88 -85
-213 -198 -291 -101 -70 -238 -88 -349 -46 -98 36 -243 202 -243 278 0 88 139
224 293 287 117 48 282 63 360 34z"/>
</g>
</svg>
