<?xml version="1.0" standalone="no"?>
<!DOCTYPE svg PUBLIC "-//W3C//DTD SVG 20010904//EN"
 "http://www.w3.org/TR/2001/REC-SVG-20010904/DTD/svg10.dtd">
<svg version="1.0" xmlns="http://www.w3.org/2000/svg"
 width="512.000000pt" height="512.000000pt" viewBox="0 0 512.000000 512.000000"
 preserveAspectRatio="xMidYMid meet">

<g transform="translate(0.000000,512.000000) scale(0.100000,-0.100000)"
fill="#000000" stroke="none">
<path d="M1337 5068 c-3 -29 -22 -258 -43 -508 -20 -250 -38 -456 -39 -457 -1
-2 -269 20 -596 47 -327 27 -609 50 -626 50 l-33 0 0 -559 0 -558 52 -6 c29
-3 287 -25 573 -48 286 -23 524 -45 529 -50 8 -7 -36 -594 -45 -603 -2 -2
-236 16 -519 40 -283 24 -532 44 -552 44 l-38 0 0 -559 0 -558 53 -6 c28 -3
257 -22 507 -43 250 -20 456 -38 457 -39 1 0 -20 -271 -47 -601 -28 -329 -50
-611 -50 -626 l0 -28 559 0 558 0 6 47 c3 27 25 288 48 580 l44 533 35 0 c56
-1 570 -46 574 -51 2 -2 -16 -238 -40 -524 -24 -286 -44 -535 -44 -552 l0 -33
559 0 558 0 6 53 c3 28 22 257 43 507 20 250 38 456 39 457 1 2 271 -20 601
-47 329 -27 611 -50 627 -50 l27 0 0 559 0 558 -47 6 c-26 3 -287 25 -580 48
l-533 44 0 35 c1 56 46 570 51 574 2 2 238 -16 524 -40 286 -24 535 -44 553
-44 l32 0 0 559 0 558 -47 6 c-27 3 -255 23 -508 43 -253 21 -461 38 -462 39
-1 1 20 271 47 601 27 329 50 611 50 627 l0 27 -559 0 -558 0 -6 -52 c-3 -29
-25 -287 -48 -573 -23 -286 -46 -524 -50 -528 -6 -8 -595 35 -603 44 -2 2 16
238 40 524 24 286 44 535 44 553 l0 32 -559 0 -558 0 -6 -52z m799 -290 c-10
-75 -88 -1039 -84 -1042 3 -4 1202 -105 1205 -102 1 1 23 258 48 571 25 314
48 580 51 593 l4 22 261 0 261 0 -6 -37 c-11 -74 -99 -1184 -94 -1188 3 -3
227 -24 499 -46 272 -22 504 -42 517 -45 l22 -4 0 -261 0 -261 -37 6 c-62 9
-1043 89 -1047 85 -4 -4 -105 -1202 -102 -1206 1 -1 258 -23 571 -48 314 -25
580 -48 593 -51 l22 -4 0 -261 0 -261 -37 6 c-78 11 -1183 99 -1188 94 -3 -3
-24 -227 -46 -499 -22 -272 -42 -504 -45 -517 l-4 -22 -261 0 -260 0 5 42 c10
76 88 1039 84 1043 -3 3 -1201 104 -1205 101 -1 -1 -23 -258 -48 -571 -26
-314 -48 -580 -51 -592 l-4 -23 -261 0 -261 0 6 38 c12 77 98 1183 93 1188 -3
3 -236 25 -519 49 -282 24 -514 44 -515 44 -2 1 -3 118 -3 262 l0 260 42 -5
c75 -10 1039 -88 1042 -84 4 3 105 1202 102 1205 -1 1 -258 23 -572 48 -313
26 -579 48 -592 51 l-22 4 0 261 0 261 38 -6 c71 -11 1183 -98 1188 -94 2 3
23 227 45 499 22 272 42 504 45 517 l4 22 261 0 260 0 -5 -42z"/>
<path d="M1957 2633 c-26 -318 -47 -589 -47 -603 l0 -25 583 -48 c320 -26 591
-48 602 -47 20 0 22 20 68 583 26 320 48 591 47 603 0 19 -18 22 -572 67 -315
26 -587 47 -604 47 l-30 0 -47 -577z m642 232 c156 -13 285 -26 288 -28 5 -6
-44 -597 -50 -603 -5 -5 -598 44 -604 50 -4 4 31 459 43 559 4 35 10 47 22 47
10 0 145 -11 301 -25z"/>
</g>
</svg>
